# xmcd CD database file
#
# Track frame offsets:
#	150
#	13340
#	29290
#	45887
#	73617
#	92515
#	107045
#	125200
#	145707
#	165790
#	182540
#
# Disc length: 2652 seconds
#
# Revision: 0
# Processed by: cddbd v1.5.1PL2 Copyright (c) Steve Scherf et al.
# Submitted via: CDex 1.51
#
DISCID=850a5a0b
DTITLE=AUN - E.A.S.T
DYEAR=2005
DGENRE=Jazz
TTITLE0=CARPEDIEN
TTITLE1=SAINT WALK
TTITLE2=BEAT
TTITLE3=CROW
TTITLE4=Jo-netsu
TTITLE5=DAYZ
TTITLE6=74
TTITLE7=1969-05
TTITLE8=BLUE
TTITLE9=ARK
TTITLE10=SAINT WALK in NY
EXTD=YEAR: 2005
EXTT0=
EXTT1=
EXTT2=
EXTT3=
EXTT4=
EXTT5=
EXTT6=
EXTT7=
EXTT8=
EXTT9=
EXTT10=
PLAYORDER=
